PathFileType	4	(X/Y/Z)	 C:\Users\z3550257\Dropbox\University\GitHubClones\TheiaOpensim\ExampleData\P01_procesed_with_single_calib\C3D_data\run_0_Theia.trc
DataRate	CameraRate	NumFrames	NumMarkers	Units	OrigDataRate	OrigDataStartFrame	OrigNumFrames
100	100	9	40	m	100	1298	3460
Frame#	Time	PELVIS1			LHIP			LKNEE			LANK			LMTP			RHIP			RKNEE			RANK			RMTP			CVJ			TORSO			LSHO			LELB			LWRIST			RSHO			RELB			RWRIST			LCALC			RCALC			LTOE			RTOE			LHAND			RHAND			HEAD_CENTRE			TORSO_LOW			LTHI			RTHI			LSHA			RSHA			L_LCALC			R_LCALC			LUA			RUA			LFRM			RFRM			HEAD_L			HEAD_R			TORSO_L			TORSO_R			PELVIS2			
		X1	Y1	Z1	X2	Y2	Z2	X3	Y3	Z3	X4	Y4	Z4	X5	Y5	Z5	X6	Y6	Z6	X7	Y7	Z7	X8	Y8	Z8	X9	Y9	Z9	X10	Y10	Z10	X11	Y11	Z11	X12	Y12	Z12	X13	Y13	Z13	X14	Y14	Z14	X15	Y15	Z15	X16	Y16	Z16	X17	Y17	Z17	X18	Y18	Z18	X19	Y19	Z19	X20	Y20	Z20	X21	Y21	Z21	X22	Y22	Z22	X23	Y23	Z23	X24	Y24	Z24	X25	Y25	Z25	X26	Y26	Z26	X27	Y27	Z27	X28	Y28	Z28	X29	Y29	Z29	X30	Y30	Z30	X31	Y31	Z31	X32	Y32	Z32	X33	Y33	Z33	X34	Y34	Z34	X35	Y35	Z35	X36	Y36	Z36	X37	Y37	Z37	X38	Y38	Z38	X39	Y39	Z39	X40	Y40	Z40	
1298	12.9800	0.632232	1.089617	-0.129306	0.631799	0.995038	-0.223575	0.483651	0.633904	-0.211613	0.292966	0.276261	-0.197699	0.345377	0.124990	-0.178747	0.655162	1.006217	-0.027578	0.858837	0.674769	-0.065303	0.739412	0.289785	-0.089431	0.868078	0.193588	-0.100911	0.728049	1.704249	-0.151658	0.737558	1.602562	-0.148145	0.734753	1.519107	-0.305931	0.668808	1.244503	-0.416155	0.880350	1.288237	-0.303919	0.651162	1.540965	0.005585	0.446675	1.327880	0.056059	0.688603	1.259272	0.064986	0.201367	0.271396	-0.190785	0.666457	0.234043	-0.096530	0.381423	0.091211	-0.176128	0.915513	0.184488	-0.101916	0.943638	1.307624	-0.276619	0.761513	1.240778	0.065279	0.771530	1.734651	-0.149022	0.698071	1.360894	-0.138645	0.538485	0.814933	-0.290248	0.764256	0.831159	0.027764	0.375002	0.462734	-0.267890	0.803586	0.478633	-0.012598	0.246672	0.244617	-0.230544	0.716943	0.240201	-0.054438	0.739704	1.378682	-0.344086	0.584836	1.414563	0.034217	0.767301	1.305394	-0.365182	0.572940	1.332089	0.049436	0.718226	1.827939	-0.228168	0.706040	1.828498	-0.078667	0.766027	1.592132	-0.295051	0.709088	1.612991	-0.001239	0.643480	1.000628	-0.125576	
1299	12.9900	0.634906	1.093170	-0.128648	0.633698	0.999102	-0.223417	0.477969	0.641079	-0.213182	0.281993	0.286101	-0.202402	0.324144	0.131702	-0.181672	0.658725	1.009232	-0.027570	0.850554	0.670966	-0.065639	0.766086	0.277429	-0.090483	0.903575	0.195206	-0.103832	0.728840	1.708287	-0.150248	0.738320	1.607146	-0.146967	0.736055	1.524534	-0.304896	0.669929	1.250187	-0.415650	0.878492	1.294435	-0.298131	0.651377	1.546067	0.006636	0.445534	1.334132	0.056476	0.687775	1.266794	0.066346	0.190188	0.287455	-0.196013	0.699289	0.214772	-0.098257	0.355556	0.093442	-0.178050	0.951584	0.190293	-0.105197	0.940556	1.314218	-0.268503	0.760742	1.248585	0.066638	0.772328	1.738683	-0.147662	0.699791	1.365325	-0.137562	0.536175	0.821474	-0.290850	0.761823	0.830561	0.027577	0.366533	0.472166	-0.270892	0.812893	0.470922	-0.013283	0.233915	0.257294	-0.235271	0.748989	0.225386	-0.056211	0.740456	1.383907	-0.342380	0.584254	1.420067	0.035196	0.766869	1.311324	-0.362014	0.571785	1.338992	0.050348	0.719025	1.831880	-0.226916	0.706877	1.832635	-0.077412	0.767139	1.596844	-0.293811	0.709502	1.617447	-0.000123	0.646212	1.004167	-0.125493	
1300	13.0000	0.637636	1.095564	-0.128058	0.635878	1.002189	-0.223504	0.474167	0.646710	-0.214350	0.270427	0.296078	-0.206784	0.303030	0.139371	-0.185722	0.662224	1.010913	-0.027754	0.841338	0.665889	-0.066092	0.792147	0.266946	-0.091176	0.937057	0.199427	-0.105960	0.729585	1.711185	-0.148827	0.738911	1.610665	-0.145758	0.737142	1.528871	-0.303853	0.670566	1.254932	-0.415346	0.876113	1.299781	-0.292899	0.651551	1.550118	0.007767	0.444517	1.339230	0.057168	0.687129	1.273382	0.067811	0.178891	0.303071	-0.200475	0.732134	0.198015	-0.099657	0.329752	0.097372	-0.181556	0.985280	0.198760	-0.107583	0.936917	1.320105	-0.261129	0.760204	1.255673	0.068435	0.773053	1.741612	-0.146271	0.701513	1.368667	-0.136469	0.535310	0.826409	-0.291452	0.759014	0.828708	0.027229	0.359175	0.480782	-0.273621	0.821450	0.463596	-0.013847	0.220767	0.270261	-0.239662	0.780569	0.213036	-0.057576	0.740851	1.388095	-0.340844	0.583725	1.424489	0.036334	0.765864	1.316352	-0.359178	0.570733	1.344847	0.051424	0.719696	1.834690	-0.225628	0.707538	1.835596	-0.076126	0.768083	1.600525	-0.292540	0.709738	1.620805	0.001024	0.649051	1.006551	-0.125629	
1301	13.0100	0.640332	1.096819	-0.127533	0.638257	1.004279	-0.223789	0.472392	0.650614	-0.215234	0.258136	0.306443	-0.210650	0.281879	0.148045	-0.191067	0.665497	1.011326	-0.028079	0.831623	0.659936	-0.066683	0.816841	0.258517	-0.091567	0.967653	0.205792	-0.107156	0.730238	1.712976	-0.147450	0.739356	1.613108	-0.144557	0.738015	1.532060	-0.302863	0.670783	1.258628	-0.415215	0.873298	1.304109	-0.288141	0.651680	1.553094	0.008935	0.443681	1.343086	0.058090	0.686717	1.278929	0.069330	0.167251	0.318502	-0.203700	0.763929	0.184116	-0.100726	0.304184	0.103173	-0.187024	1.015740	0.209301	-0.108892	0.932815	1.325139	-0.254426	0.759948	1.261944	0.070595	0.773670	1.743454	-0.144892	0.703189	1.370920	-0.135392	0.535888	0.829644	-0.292090	0.755989	0.825842	0.026738	0.352901	0.488564	-0.276038	0.829100	0.456906	-0.014332	0.206969	0.283824	-0.243406	0.810668	0.203367	-0.058518	0.740922	1.391167	-0.339476	0.583285	1.427787	0.037582	0.764359	1.320341	-0.356604	0.569854	1.349579	0.052674	0.720243	1.836424	-0.224329	0.708013	1.837405	-0.074833	0.768865	1.603152	-0.291282	0.709846	1.623065	0.002169	0.651877	1.007803	-0.125934	
1302	13.0200	0.642919	1.097018	-0.127073	0.640781	1.005416	-0.224225	0.472711	0.652727	-0.215987	0.245238	0.317424	-0.213925	0.260688	0.157810	-0.197714	0.668394	1.010592	-0.028500	0.821948	0.653514	-0.067368	0.839238	0.252065	-0.091709	0.994435	0.213450	-0.107344	0.730757	1.713725	-0.146162	0.739690	1.614489	-0.143383	0.738653	1.534074	-0.301966	0.670589	1.261206	-0.415203	0.870159	1.307272	-0.283843	0.651792	1.554988	0.010117	0.443098	1.345647	0.059221	0.686598	1.283343	0.070887	0.155303	0.334031	-0.205482	0.793340	0.173119	-0.101481	0.279088	0.110920	-0.194553	1.042091	0.220911	-0.109017	0.928360	1.329130	-0.248361	0.760019	1.267263	0.072980	0.774149	1.744254	-0.143565	0.704743	1.372114	-0.134360	0.537858	0.831216	-0.292812	0.752901	0.822215	0.026150	0.347731	0.495552	-0.278172	0.835623	0.450972	-0.014740	0.192573	0.298242	-0.246345	0.838062	0.196255	-0.059044	0.740675	1.393086	-0.338273	0.582986	1.429937	0.038916	0.762438	1.323185	-0.354262	0.569227	1.353118	0.054084	0.720686	1.837157	-0.223057	0.708316	1.838130	-0.073573	0.769482	1.604735	-0.290066	0.709897	1.624244	0.003299	0.654587	1.008004	-0.126363	
1303	13.0300	0.645351	1.096270	-0.126681	0.643426	1.005675	-0.224778	0.475081	0.653099	-0.216765	0.232089	0.329161	-0.216634	0.239611	0.168754	-0.205472	0.670803	1.008854	-0.028981	0.812904	0.646980	-0.068063	0.858330	0.247213	-0.091644	1.016529	0.221207	-0.106557	0.731114	1.713506	-0.144990	0.739934	1.614835	-0.142242	0.739023	1.534912	-0.301176	0.669917	1.262635	-0.415225	0.866804	1.309166	-0.280070	0.651928	1.555795	0.011318	0.442829	1.346883	0.060567	0.686824	1.286549	0.072497	0.143343	0.349890	-0.205907	0.818900	0.164713	-0.101973	0.254722	0.120588	-0.203901	1.063551	0.232229	-0.107974	0.923656	1.331860	-0.242940	0.760450	1.271491	0.075429	0.774479	1.744068	-0.142322	0.706091	1.372293	-0.133400	0.541122	0.831249	-0.293661	0.749893	0.818055	0.025531	0.343724	0.501811	-0.280096	0.840758	0.445734	-0.015048	0.177943	0.313665	-0.248486	0.861457	0.191206	-0.059202	0.740084	1.393843	-0.337221	0.582884	1.430924	0.040339	0.760166	1.324820	-0.352176	0.568914	1.355399	0.055626	0.721049	1.836961	-0.221849	0.708477	1.837863	-0.072380	0.769920	1.605306	-0.288902	0.709947	1.624365	0.004418	0.657115	1.007264	-0.126880	
1304	13.0400	0.647615	1.094677	-0.126367	0.646198	1.005129	-0.225423	0.479348	0.651854	-0.217701	0.219213	0.341673	-0.218875	0.218923	0.180919	-0.213958	0.672685	1.006243	-0.029500	0.805042	0.640581	-0.068673	0.873166	0.243325	-0.091419	1.033218	0.227671	-0.104954	0.731301	1.712378	-0.143930	0.740089	1.614169	-0.141123	0.739100	1.534589	-0.300490	0.668619	1.262925	-0.415168	0.863310	1.309736	-0.276937	0.652136	1.555497	0.012578	0.442924	1.346777	0.062172	0.687433	1.288486	0.074196	0.131868	0.366229	-0.205315	0.839205	0.158259	-0.102281	0.231303	0.132046	-0.214506	1.079528	0.241693	-0.105936	0.918795	1.333115	-0.238208	0.761263	1.274504	0.077801	0.774658	1.742942	-0.141170	0.707166	1.371488	-0.132524	0.545548	0.829917	-0.294672	0.747103	0.813527	0.024949	0.340957	0.507400	-0.281901	0.844249	0.440956	-0.015230	0.163682	0.330088	-0.249981	0.879661	0.187409	-0.059075	0.739096	1.393457	-0.336304	0.583026	1.430730	0.041890	0.757575	1.325229	-0.350409	0.568962	1.356361	0.057288	0.721357	1.835878	-0.220730	0.708531	1.836690	-0.071283	0.770148	1.604897	-0.287789	0.710030	1.623442	0.005543	0.659441	1.005686	-0.127462	
1305	13.0500	0.649729	1.092306	-0.126144	0.649106	1.003814	-0.226142	0.485286	0.649139	-0.218902	0.207211	0.354851	-0.220790	0.198974	0.194271	-0.222657	0.674084	1.002858	-0.030046	0.798790	0.634418	-0.069125	0.882996	0.239614	-0.091082	1.044040	0.231466	-0.102810	0.731326	1.710358	-0.142956	0.740138	1.612496	-0.140015	0.738863	1.533135	-0.299887	0.666511	1.262116	-0.414911	0.859706	1.308955	-0.274554	0.652461	1.554057	0.013953	0.443425	1.345300	0.064124	0.688459	1.289104	0.076016	0.121473	0.383096	-0.204206	0.853120	0.152912	-0.102487	0.208989	0.145075	-0.225583	1.089693	0.247763	-0.103227	0.913853	1.332715	-0.234230	0.762490	1.276220	0.079996	0.774701	1.740889	-0.140097	0.707941	1.369704	-0.131724	0.550983	0.827383	-0.295870	0.744666	0.808708	0.024449	0.339510	0.512346	-0.283689	0.845889	0.436265	-0.015270	0.150503	0.347360	-0.251075	0.891761	0.183900	-0.058773	0.737639	1.391958	-0.335492	0.583458	1.429321	0.043630	0.754652	1.324425	-0.349022	0.569402	1.355948	0.059081	0.721620	1.833902	-0.219717	0.708507	1.834654	-0.070294	0.770113	1.603516	-0.286720	0.710162	1.621477	0.006690	0.661595	1.003336	-0.128094	
1306	13.0600	0.651723	1.089179	-0.126021	0.652149	1.001717	-0.226912	0.492650	0.645079	-0.220450	0.196650	0.368497	-0.222537	0.180137	0.208694	-0.231005	0.675128	0.998757	-0.030613	0.794394	0.628457	-0.069386	0.887391	0.235315	-0.090701	1.048835	0.231470	-0.100475	0.731208	1.707416	-0.142039	0.740059	1.609797	-0.138913	0.738298	1.530583	-0.299343	0.663432	1.260262	-0.414360	0.855984	1.306791	-0.272977	0.652945	1.551415	0.015493	0.444380	1.342413	0.066554	0.689943	1.288370	0.077958	0.112749	0.400448	-0.203106	0.859958	0.147810	-0.102664	0.187893	0.159402	-0.236266	1.094011	0.249182	-0.100270	0.908901	1.330537	-0.231084	0.764169	1.276610	0.081954	0.774621	1.737885	-0.139089	0.708439	1.366917	-0.130976	0.557269	0.823771	-0.297268	0.742711	0.803597	0.024053	0.339447	0.516643	-0.285562	0.845569	0.431253	-0.015186	0.139085	0.365211	-0.252040	0.897264	0.179767	-0.058412	0.735643	1.389383	-0.334755	0.584222	1.426641	0.045634	0.751361	1.322423	-0.348034	0.570263	1.354109	0.061040	0.721838	1.830978	-0.218812	0.708417	1.831740	-0.069416	0.769756	1.601140	-0.285697	0.710361	1.618453	0.007871	0.663639	1.000237	-0.128762	
